<?xml version="1.0" encoding="iso-8859-1"?>
<!-- Generator: Adobe Illustrator 19.0.0, SVG Export Plug-In . SVG Version: 6.00 Build 0)  -->
<svg xmlns="http://www.w3.org/2000/svg" xmlns:xlink="http://www.w3.org/1999/xlink" version="1.1" id="Layer_1" x="0px" y="0px" viewBox="0 0 512 512" style="enable-background:new 0 0 512 512;" xml:space="preserve">
<polygon style="fill:#00AEEF;" points="389.02,148.748 399.059,103.572 323.765,103.572 333.804,148.748 "/>
<path style="fill:#F7941E;" d="M317.681,197.605c-12.328,5.983-23.261,14.426-32.156,24.686  c9.969,17.99,15.651,38.671,15.651,60.647c0,24.395-6.997,47.184-19.085,66.48c-7.268,11.585-16.384,21.916-26.915,30.559  c-21.655,17.769-49.353,28.451-79.491,28.451c-69.2,0-125.49-56.29-125.49-125.49s56.29-125.49,125.49-125.49  c32.567,0,62.283,12.469,84.611,32.878c9.427-9.758,20.259-18.151,32.156-24.867c-29.937-29.776-71.208-48.168-116.766-48.168  c-91.487,0-165.647,74.16-165.647,165.647s74.16,165.647,165.647,165.647c42.335,0,80.986-15.892,110.261-42.034  c10.18-9.075,19.235-19.406,26.925-30.74c17.96-26.483,28.461-58.458,28.461-92.873C341.333,251.726,332.7,222.522,317.681,197.605z  "/>
<path style="fill:#FAC51C;" d="M361.412,147.409c-25.058,0-48.58,6.556-68.959,18.051c-11.896,6.716-22.729,15.109-32.156,24.867  c-24.415,25.289-39.434,59.703-39.434,97.631c0,35.187,12.931,67.363,34.314,92.019c10.531-8.644,19.647-18.974,26.915-30.559  c-13.202-16.996-21.072-38.33-21.072-61.46c0-25.088,9.246-48.048,24.506-65.667c8.895-10.26,19.827-18.703,32.156-24.686  c13.232-6.435,28.07-10.039,43.731-10.039c55.356,0,100.392,45.036,100.392,100.392S416.768,388.35,361.412,388.35  c-17.599,0-34.143-4.548-48.54-12.539c-7.69,11.334-16.745,21.665-26.925,30.74c21.805,13.904,47.696,21.956,75.465,21.956  c77.623,0,140.549-62.926,140.549-140.549S439.035,147.409,361.412,147.409z"/>
<g>
	<path style="fill:#231F20;" d="M400.676,142.573l8.183-36.824c0.661-2.973-0.063-6.085-1.969-8.46   c-1.905-2.375-4.787-3.758-7.832-3.758h-75.294c-3.045,0-5.925,1.381-7.832,3.758c-1.904,2.375-2.629,5.487-1.969,8.46   l8.185,36.832c-9.658,2.601-19.043,6.164-28.002,10.637c-32.433-29.692-74.208-45.966-118.461-45.966   C78.813,107.252,0,186.065,0,282.938s78.813,175.686,175.686,175.686c40.734,0,79.967-14.071,111.295-39.756   c22.618,12.882,48.187,19.678,74.431,19.678c83.034,0,150.588-67.554,150.588-150.588C512,218.503,464.73,159.89,400.676,142.573z    M336.28,113.611h50.264l-5.563,25.03c-6.407-0.835-12.939-1.271-19.57-1.271c-6.561,0-13.097,0.433-19.568,1.279L336.28,113.611z    M175.686,438.546c-85.802,0-155.608-69.806-155.608-155.608S89.884,127.33,175.686,127.33c37.112,0,72.262,12.916,100.278,36.612   l0.067-0.016c-5.683,3.917-11.093,8.214-16.191,12.873l0.011-0.037c-23.913-18.991-53.454-29.354-84.165-29.354   c-74.731,0-135.529,60.799-135.529,135.529s60.799,135.529,135.529,135.529c31.218,0,61.709-10.914,85.859-30.73   c11.432-9.384,21.206-20.481,29.053-32.99c13.488-21.53,20.617-46.361,20.617-71.81c0-20.425-4.653-40.656-13.511-58.957   c4.889-4.875,10.259-9.16,16.094-12.783c11.471,22.045,17.495,46.653,17.495,71.74c0,31.285-9.243,61.451-26.729,87.236   c-7.211,10.628-15.722,20.345-25.305,28.889C250.749,424.524,213.965,438.546,175.686,438.546z M245.889,191.342   c-22.685,27.067-35.065,60.98-35.065,96.615c0,32.643,10.598,64.288,30.028,90.229c-19.114,13.085-41.904,20.202-65.166,20.202   c-63.66,0-115.451-51.791-115.451-115.451s51.791-115.451,115.451-115.451C201.212,167.487,225.785,175.899,245.889,191.342z    M283.628,242.046c4.931,13.01,7.509,26.894,7.509,40.893c0,16.178-3.385,32.06-9.874,46.695   c-6.701-12.782-10.205-26.936-10.205-41.676C271.059,271.72,275.452,255.876,283.628,242.046z M331.923,202.544   c9.431-3.278,19.309-4.939,29.489-4.939c49.821,0,90.353,40.532,90.353,90.353s-40.532,90.353-90.353,90.353   c-11.697,0-23.287-2.294-34.045-6.678c15.734-26.842,24.006-57.27,24.006-88.694C351.373,254.851,344.674,227.29,331.923,202.544z    M361.412,418.468c-20.589,0-40.702-4.809-58.861-13.995l-0.053,0.026c4.824-5.029,9.35-10.342,13.548-15.91l-0.003,0.037   c14.192,6.407,29.708,9.763,45.369,9.763c60.892,0,110.431-49.54,110.431-110.431s-49.54-110.431-110.431-110.431   c-16.855,0-33.045,3.718-48.115,11.047c-13.55,6.577-25.446,15.708-35.36,27.145c-17.383,20.07-26.956,45.727-26.956,72.239   c0,22.251,6.502,43.427,18.87,61.678c-4.018,5.655-8.517,10.936-13.477,15.786c-16.49-22.34-25.471-49.478-25.471-77.464   c0-34.005,13.005-66.201,36.616-90.656c8.793-9.103,18.844-16.874,29.868-23.098c19.433-10.961,41.573-16.755,64.026-16.755   c71.964,0,130.51,58.547,130.51,130.51S433.376,418.468,361.412,418.468z"/>
	<path style="fill:#231F20;" d="M353.129,73.454h16.565c5.544,0,10.039-4.495,10.039-10.039s-4.496-10.039-10.039-10.039h-16.565   c-5.544,0-10.039,4.495-10.039,10.039S347.586,73.454,353.129,73.454z"/>
</g>
<g>
</g>
<g>
</g>
<g>
</g>
<g>
</g>
<g>
</g>
<g>
</g>
<g>
</g>
<g>
</g>
<g>
</g>
<g>
</g>
<g>
</g>
<g>
</g>
<g>
</g>
<g>
</g>
<g>
</g>
</svg>
